<?xml version="1.0" encoding="utf-8" standalone="no"?>
<!DOCTYPE svg PUBLIC "-//W3C//DTD SVG 1.1//EN"
  "http://www.w3.org/Graphics/SVG/1.1/DTD/svg11.dtd">
<svg xmlns:xlink="http://www.w3.org/1999/xlink" width="936pt" height="432pt" viewBox="0 0 936 432" xmlns="http://www.w3.org/2000/svg" version="1.1">
 <metadata>
  <rdf:RDF xmlns:dc="http://purl.org/dc/elements/1.1/" xmlns:cc="http://creativecommons.org/ns#" xmlns:rdf="http://www.w3.org/1999/02/22-rdf-syntax-ns#">
   <cc:Work>
    <dc:type rdf:resource="http://purl.org/dc/dcmitype/StillImage"/>
    <dc:date>2024-03-29T20:33:14.458124</dc:date>
    <dc:format>image/svg+xml</dc:format>
    <dc:creator>
     <cc:Agent>
      <dc:title>Matplotlib v3.7.2, https://matplotlib.org/</dc:title>
     </cc:Agent>
    </dc:creator>
   </cc:Work>
  </rdf:RDF>
 </metadata>
 <defs>
  <style type="text/css">*{stroke-linejoin: round; stroke-linecap: butt}</style>
 </defs>
 <g id="figure_1">
  <g id="patch_1">
   <path d="M 0 432 
L 936 432 
L 936 0 
L 0 0 
z
" style="fill: #ffffff"/>
  </g>
  <g id="axes_1">
   <g id="patch_2">
    <path d="M 117 384.48 
L 842.4 384.48 
L 842.4 51.84 
L 117 51.84 
z
" style="fill: #ffffff"/>
   </g>
   <g id="matplotlib.axis_1">
    <g id="xtick_1">
     <g id="line2d_1">
      <path d="M 117 384.48 
L 117 51.84 
" clip-path="url(#pf4cf029164)" style="fill: none; stroke-dasharray: 2.96,1.28; stroke-dashoffset: 0; stroke: #b0b0b0; stroke-width: 0.8"/>
     </g>
     <g id="line2d_2">
      <defs>
       <path id="mb5d766a11d" d="M 0 0 
L 0 3.5 
" style="stroke: #000000; stroke-width: 0.8"/>
      </defs>
      <g>
       <use xlink:href="#mb5d766a11d" x="117" y="384.48" style="stroke: #000000; stroke-width: 0.8"/>
      </g>
     </g>
     <g id="text_1">
      <!-- 2004 -->
      <g transform="translate(107 398.355) scale(0.1 -0.1)">
       <defs>
        <path id="SimHei-32" d="M 300 250 
Q 325 625 650 925 
Q 975 1225 1475 1862 
Q 1975 2500 2125 2850 
Q 2275 3200 2237 3450 
Q 2200 3700 2000 3862 
Q 1800 4025 1537 4000 
Q 1275 3975 1037 3800 
Q 800 3625 675 3275 
L 200 3350 
Q 400 3925 712 4187 
Q 1025 4450 1450 4475 
Q 1700 4500 1900 4462 
Q 2100 4425 2312 4287 
Q 2525 4150 2662 3875 
Q 2800 3600 2762 3212 
Q 2725 2825 2375 2287 
Q 2025 1750 1025 600 
L 2825 600 
L 2825 150 
L 300 150 
L 300 250 
z
" transform="scale(0.015625)"/>
        <path id="SimHei-30" d="M 225 2537 
Q 250 3200 412 3587 
Q 575 3975 875 4225 
Q 1175 4475 1612 4475 
Q 2050 4475 2375 4112 
Q 2700 3750 2800 3200 
Q 2900 2650 2862 1937 
Q 2825 1225 2612 775 
Q 2400 325 1975 150 
Q 1550 -25 1125 187 
Q 700 400 525 750 
Q 350 1100 275 1487 
Q 200 1875 225 2537 
z
M 750 2687 
Q 675 2000 800 1462 
Q 925 925 1212 700 
Q 1500 475 1800 612 
Q 2100 750 2237 1162 
Q 2375 1575 2375 2062 
Q 2375 2550 2337 2950 
Q 2300 3350 2112 3675 
Q 1925 4000 1612 4012 
Q 1300 4025 1062 3700 
Q 825 3375 750 2687 
z
" transform="scale(0.015625)"/>
        <path id="SimHei-34" d="M 2000 1100 
L 75 1100 
L 75 1525 
L 2100 4450 
L 2475 4450 
L 2475 1525 
L 3075 1525 
L 3075 1100 
L 2475 1100 
L 2475 150 
L 2000 150 
L 2000 1100 
z
M 2000 1525 
L 2000 3500 
L 600 1525 
L 2000 1525 
z
" transform="scale(0.015625)"/>
       </defs>
       <use xlink:href="#SimHei-32"/>
       <use xlink:href="#SimHei-30" x="50"/>
       <use xlink:href="#SimHei-30" x="100"/>
       <use xlink:href="#SimHei-34" x="150"/>
      </g>
     </g>
    </g>
    <g id="xtick_2">
     <g id="line2d_3">
      <path d="M 155.178947 384.48 
L 155.178947 51.84 
" clip-path="url(#pf4cf029164)" style="fill: none; stroke-dasharray: 2.96,1.28; stroke-dashoffset: 0; stroke: #b0b0b0; stroke-width: 0.8"/>
     </g>
     <g id="line2d_4">
      <g>
       <use xlink:href="#mb5d766a11d" x="155.178947" y="384.48" style="stroke: #000000; stroke-width: 0.8"/>
      </g>
     </g>
     <g id="text_2">
      <!-- 2005 -->
      <g transform="translate(145.178947 398.355) scale(0.1 -0.1)">
       <defs>
        <path id="SimHei-35" d="M 550 1325 
Q 725 650 1150 575 
Q 1575 500 1837 662 
Q 2100 825 2212 1087 
Q 2325 1350 2312 1675 
Q 2300 2000 2137 2225 
Q 1975 2450 1725 2525 
Q 1475 2600 1162 2525 
Q 850 2450 650 2175 
L 225 2225 
Q 275 2375 700 4375 
L 2675 4375 
L 2675 3925 
L 1075 3925 
Q 950 3250 825 2850 
Q 1200 3025 1525 3012 
Q 1850 3000 2150 2862 
Q 2450 2725 2587 2487 
Q 2725 2250 2787 2012 
Q 2850 1775 2837 1500 
Q 2825 1225 2725 937 
Q 2625 650 2425 462 
Q 2225 275 1937 162 
Q 1650 50 1275 75 
Q 900 100 562 350 
Q 225 600 100 1200 
L 550 1325 
z
" transform="scale(0.015625)"/>
       </defs>
       <use xlink:href="#SimHei-32"/>
       <use xlink:href="#SimHei-30" x="50"/>
       <use xlink:href="#SimHei-30" x="100"/>
       <use xlink:href="#SimHei-35" x="150"/>
      </g>
     </g>
    </g>
    <g id="xtick_3">
     <g id="line2d_5">
      <path d="M 193.357895 384.48 
L 193.357895 51.84 
" clip-path="url(#pf4cf029164)" style="fill: none; stroke-dasharray: 2.96,1.28; stroke-dashoffset: 0; stroke: #b0b0b0; stroke-width: 0.8"/>
     </g>
     <g id="line2d_6">
      <g>
       <use xlink:href="#mb5d766a11d" x="193.357895" y="384.48" style="stroke: #000000; stroke-width: 0.8"/>
      </g>
     </g>
     <g id="text_3">
      <!-- 2006 -->
      <g transform="translate(183.357895 398.355) scale(0.1 -0.1)">
       <defs>
        <path id="SimHei-36" d="M 250 1612 
Q 275 1975 387 2225 
Q 500 2475 725 2850 
L 1750 4450 
L 2325 4450 
L 1275 2800 
Q 1950 2975 2350 2750 
Q 2750 2525 2887 2237 
Q 3025 1950 3037 1612 
Q 3050 1275 2937 950 
Q 2825 625 2537 362 
Q 2250 100 1737 75 
Q 1225 50 862 262 
Q 500 475 362 862 
Q 225 1250 250 1612 
z
M 1025 787 
Q 1250 550 1625 525 
Q 2000 500 2250 775 
Q 2500 1050 2500 1575 
Q 2500 2100 2187 2300 
Q 1875 2500 1487 2450 
Q 1100 2400 925 2075 
Q 750 1750 775 1387 
Q 800 1025 1025 787 
z
" transform="scale(0.015625)"/>
       </defs>
       <use xlink:href="#SimHei-32"/>
       <use xlink:href="#SimHei-30" x="50"/>
       <use xlink:href="#SimHei-30" x="100"/>
       <use xlink:href="#SimHei-36" x="150"/>
      </g>
     </g>
    </g>
    <g id="xtick_4">
     <g id="line2d_7">
      <path d="M 231.536842 384.48 
L 231.536842 51.84 
" clip-path="url(#pf4cf029164)" style="fill: none; stroke-dasharray: 2.96,1.28; stroke-dashoffset: 0; stroke: #b0b0b0; stroke-width: 0.8"/>
     </g>
     <g id="line2d_8">
      <g>
       <use xlink:href="#mb5d766a11d" x="231.536842" y="384.48" style="stroke: #000000; stroke-width: 0.8"/>
      </g>
     </g>
     <g id="text_4">
      <!-- 2007 -->
      <g transform="translate(221.536842 398.355) scale(0.1 -0.1)">
       <defs>
        <path id="SimHei-37" d="M 850 150 
Q 1300 2050 2425 3925 
L 275 3925 
L 275 4375 
L 2950 4375 
L 2950 3950 
Q 1775 2050 1400 150 
L 850 150 
z
" transform="scale(0.015625)"/>
       </defs>
       <use xlink:href="#SimHei-32"/>
       <use xlink:href="#SimHei-30" x="50"/>
       <use xlink:href="#SimHei-30" x="100"/>
       <use xlink:href="#SimHei-37" x="150"/>
      </g>
     </g>
    </g>
    <g id="xtick_5">
     <g id="line2d_9">
      <path d="M 269.715789 384.48 
L 269.715789 51.84 
" clip-path="url(#pf4cf029164)" style="fill: none; stroke-dasharray: 2.96,1.28; stroke-dashoffset: 0; stroke: #b0b0b0; stroke-width: 0.8"/>
     </g>
     <g id="line2d_10">
      <g>
       <use xlink:href="#mb5d766a11d" x="269.715789" y="384.48" style="stroke: #000000; stroke-width: 0.8"/>
      </g>
     </g>
     <g id="text_5">
      <!-- 2008 -->
      <g transform="translate(259.715789 398.355) scale(0.1 -0.1)">
       <defs>
        <path id="SimHei-38" d="M 175 1375 
Q 175 1675 325 1962 
Q 475 2250 825 2425 
Q 525 2600 425 2812 
Q 325 3025 312 3300 
Q 300 3575 387 3775 
Q 475 3975 650 4150 
Q 825 4325 1037 4387 
Q 1250 4450 1500 4450 
Q 1750 4450 1950 4400 
Q 2150 4350 2375 4187 
Q 2600 4025 2700 3725 
Q 2800 3425 2687 3025 
Q 2575 2625 2100 2400 
Q 2525 2275 2700 2012 
Q 2875 1750 2875 1375 
Q 2875 1000 2762 775 
Q 2650 550 2512 400 
Q 2375 250 2137 162 
Q 1900 75 1537 75 
Q 1175 75 912 162 
Q 650 250 475 425 
Q 300 600 237 837 
Q 175 1075 175 1375 
z
M 687 1400 
Q 675 1100 787 875 
Q 900 650 1200 587 
Q 1500 525 1825 600 
Q 2150 675 2275 950 
Q 2400 1225 2362 1500 
Q 2325 1775 2050 1962 
Q 1775 2150 1450 2125 
Q 1125 2100 912 1900 
Q 700 1700 687 1400 
z
M 775 3350 
Q 775 3100 950 2875 
Q 1125 2650 1500 2650 
Q 1875 2650 2062 2875 
Q 2250 3100 2237 3412 
Q 2225 3725 2012 3875 
Q 1800 4025 1437 4000 
Q 1075 3975 925 3787 
Q 775 3600 775 3350 
z
" transform="scale(0.015625)"/>
       </defs>
       <use xlink:href="#SimHei-32"/>
       <use xlink:href="#SimHei-30" x="50"/>
       <use xlink:href="#SimHei-30" x="100"/>
       <use xlink:href="#SimHei-38" x="150"/>
      </g>
     </g>
    </g>
    <g id="xtick_6">
     <g id="line2d_11">
      <path d="M 307.894737 384.48 
L 307.894737 51.84 
" clip-path="url(#pf4cf029164)" style="fill: none; stroke-dasharray: 2.96,1.28; stroke-dashoffset: 0; stroke: #b0b0b0; stroke-width: 0.8"/>
     </g>
     <g id="line2d_12">
      <g>
       <use xlink:href="#mb5d766a11d" x="307.894737" y="384.48" style="stroke: #000000; stroke-width: 0.8"/>
      </g>
     </g>
     <g id="text_6">
      <!-- 2009 -->
      <g transform="translate(297.894737 398.355) scale(0.1 -0.1)">
       <defs>
        <path id="SimHei-39" d="M 800 75 
Q 1350 1000 1700 1750 
Q 1075 1650 662 1912 
Q 250 2175 162 2625 
Q 75 3075 175 3437 
Q 275 3800 487 4037 
Q 700 4275 1000 4375 
Q 1300 4475 1537 4475 
Q 1775 4475 2025 4375 
Q 2275 4275 2475 4075 
Q 2675 3875 2750 3662 
Q 2825 3450 2825 3112 
Q 2825 2775 2575 2250 
Q 2325 1725 1350 75 
L 800 75 
z
M 662 2875 
Q 700 2550 937 2337 
Q 1175 2125 1450 2150 
Q 1725 2175 1887 2300 
Q 2050 2425 2200 2725 
Q 2300 3100 2250 3362 
Q 2200 3625 1987 3800 
Q 1775 3975 1525 3975 
Q 1375 4000 1137 3900 
Q 900 3800 762 3500 
Q 625 3200 662 2875 
z
" transform="scale(0.015625)"/>
       </defs>
       <use xlink:href="#SimHei-32"/>
       <use xlink:href="#SimHei-30" x="50"/>
       <use xlink:href="#SimHei-30" x="100"/>
       <use xlink:href="#SimHei-39" x="150"/>
      </g>
     </g>
    </g>
    <g id="xtick_7">
     <g id="line2d_13">
      <path d="M 346.073684 384.48 
L 346.073684 51.84 
" clip-path="url(#pf4cf029164)" style="fill: none; stroke-dasharray: 2.96,1.28; stroke-dashoffset: 0; stroke: #b0b0b0; stroke-width: 0.8"/>
     </g>
     <g id="line2d_14">
      <g>
       <use xlink:href="#mb5d766a11d" x="346.073684" y="384.48" style="stroke: #000000; stroke-width: 0.8"/>
      </g>
     </g>
     <g id="text_7">
      <!-- 2010 -->
      <g transform="translate(336.073684 398.355) scale(0.1 -0.1)">
       <defs>
        <path id="SimHei-31" d="M 1400 3600 
Q 1075 3275 575 2975 
L 575 3450 
Q 1200 3875 1600 4450 
L 1900 4450 
L 1900 150 
L 1400 150 
L 1400 3600 
z
" transform="scale(0.015625)"/>
       </defs>
       <use xlink:href="#SimHei-32"/>
       <use xlink:href="#SimHei-30" x="50"/>
       <use xlink:href="#SimHei-31" x="100"/>
       <use xlink:href="#SimHei-30" x="150"/>
      </g>
     </g>
    </g>
    <g id="xtick_8">
     <g id="line2d_15">
      <path d="M 384.252632 384.48 
L 384.252632 51.84 
" clip-path="url(#pf4cf029164)" style="fill: none; stroke-dasharray: 2.96,1.28; stroke-dashoffset: 0; stroke: #b0b0b0; stroke-width: 0.8"/>
     </g>
     <g id="line2d_16">
      <g>
       <use xlink:href="#mb5d766a11d" x="384.252632" y="384.48" style="stroke: #000000; stroke-width: 0.8"/>
      </g>
     </g>
     <g id="text_8">
      <!-- 2011 -->
      <g transform="translate(374.252632 398.355) scale(0.1 -0.1)">
       <use xlink:href="#SimHei-32"/>
       <use xlink:href="#SimHei-30" x="50"/>
       <use xlink:href="#SimHei-31" x="100"/>
       <use xlink:href="#SimHei-31" x="150"/>
      </g>
     </g>
    </g>
    <g id="xtick_9">
     <g id="line2d_17">
      <path d="M 422.431579 384.48 
L 422.431579 51.84 
" clip-path="url(#pf4cf029164)" style="fill: none; stroke-dasharray: 2.96,1.28; stroke-dashoffset: 0; stroke: #b0b0b0; stroke-width: 0.8"/>
     </g>
     <g id="line2d_18">
      <g>
       <use xlink:href="#mb5d766a11d" x="422.431579" y="384.48" style="stroke: #000000; stroke-width: 0.8"/>
      </g>
     </g>
     <g id="text_9">
      <!-- 2012 -->
      <g transform="translate(412.431579 398.355) scale(0.1 -0.1)">
       <use xlink:href="#SimHei-32"/>
       <use xlink:href="#SimHei-30" x="50"/>
       <use xlink:href="#SimHei-31" x="100"/>
       <use xlink:href="#SimHei-32" x="150"/>
      </g>
     </g>
    </g>
    <g id="xtick_10">
     <g id="line2d_19">
      <path d="M 460.610526 384.48 
L 460.610526 51.84 
" clip-path="url(#pf4cf029164)" style="fill: none; stroke-dasharray: 2.96,1.28; stroke-dashoffset: 0; stroke: #b0b0b0; stroke-width: 0.8"/>
     </g>
     <g id="line2d_20">
      <g>
       <use xlink:href="#mb5d766a11d" x="460.610526" y="384.48" style="stroke: #000000; stroke-width: 0.8"/>
      </g>
     </g>
     <g id="text_10">
      <!-- 2013 -->
      <g transform="translate(450.610526 398.355) scale(0.1 -0.1)">
       <defs>
        <path id="SimHei-33" d="M 250 1225 
L 700 1300 
Q 800 975 1025 762 
Q 1250 550 1587 562 
Q 1925 575 2125 837 
Q 2325 1100 2300 1437 
Q 2275 1775 2037 1962 
Q 1800 2150 1275 2225 
L 1275 2550 
Q 1800 2600 2037 2825 
Q 2275 3050 2250 3412 
Q 2225 3775 1925 3937 
Q 1625 4100 1287 3975 
Q 950 3850 750 3275 
L 300 3350 
Q 450 3800 712 4100 
Q 975 4400 1425 4450 
Q 1875 4500 2212 4337 
Q 2550 4175 2687 3837 
Q 2825 3500 2725 3100 
Q 2625 2700 2150 2400 
Q 2500 2250 2687 1950 
Q 2875 1650 2812 1162 
Q 2750 675 2375 375 
Q 2000 75 1525 87 
Q 1050 100 700 387 
Q 350 675 250 1225 
z
" transform="scale(0.015625)"/>
       </defs>
       <use xlink:href="#SimHei-32"/>
       <use xlink:href="#SimHei-30" x="50"/>
       <use xlink:href="#SimHei-31" x="100"/>
       <use xlink:href="#SimHei-33" x="150"/>
      </g>
     </g>
    </g>
    <g id="xtick_11">
     <g id="line2d_21">
      <path d="M 498.789474 384.48 
L 498.789474 51.84 
" clip-path="url(#pf4cf029164)" style="fill: none; stroke-dasharray: 2.96,1.28; stroke-dashoffset: 0; stroke: #b0b0b0; stroke-width: 0.8"/>
     </g>
     <g id="line2d_22">
      <g>
       <use xlink:href="#mb5d766a11d" x="498.789474" y="384.48" style="stroke: #000000; stroke-width: 0.8"/>
      </g>
     </g>
     <g id="text_11">
      <!-- 2014 -->
      <g transform="translate(488.789474 398.355) scale(0.1 -0.1)">
       <use xlink:href="#SimHei-32"/>
       <use xlink:href="#SimHei-30" x="50"/>
       <use xlink:href="#SimHei-31" x="100"/>
       <use xlink:href="#SimHei-34" x="150"/>
      </g>
     </g>
    </g>
    <g id="xtick_12">
     <g id="line2d_23">
      <path d="M 536.968421 384.48 
L 536.968421 51.84 
" clip-path="url(#pf4cf029164)" style="fill: none; stroke-dasharray: 2.96,1.28; stroke-dashoffset: 0; stroke: #b0b0b0; stroke-width: 0.8"/>
     </g>
     <g id="line2d_24">
      <g>
       <use xlink:href="#mb5d766a11d" x="536.968421" y="384.48" style="stroke: #000000; stroke-width: 0.8"/>
      </g>
     </g>
     <g id="text_12">
      <!-- 2015 -->
      <g transform="translate(526.968421 398.355) scale(0.1 -0.1)">
       <use xlink:href="#SimHei-32"/>
       <use xlink:href="#SimHei-30" x="50"/>
       <use xlink:href="#SimHei-31" x="100"/>
       <use xlink:href="#SimHei-35" x="150"/>
      </g>
     </g>
    </g>
    <g id="xtick_13">
     <g id="line2d_25">
      <path d="M 575.147368 384.48 
L 575.147368 51.84 
" clip-path="url(#pf4cf029164)" style="fill: none; stroke-dasharray: 2.96,1.28; stroke-dashoffset: 0; stroke: #b0b0b0; stroke-width: 0.8"/>
     </g>
     <g id="line2d_26">
      <g>
       <use xlink:href="#mb5d766a11d" x="575.147368" y="384.48" style="stroke: #000000; stroke-width: 0.8"/>
      </g>
     </g>
     <g id="text_13">
      <!-- 2016 -->
      <g transform="translate(565.147368 398.355) scale(0.1 -0.1)">
       <use xlink:href="#SimHei-32"/>
       <use xlink:href="#SimHei-30" x="50"/>
       <use xlink:href="#SimHei-31" x="100"/>
       <use xlink:href="#SimHei-36" x="150"/>
      </g>
     </g>
    </g>
    <g id="xtick_14">
     <g id="line2d_27">
      <path d="M 613.326316 384.48 
L 613.326316 51.84 
" clip-path="url(#pf4cf029164)" style="fill: none; stroke-dasharray: 2.96,1.28; stroke-dashoffset: 0; stroke: #b0b0b0; stroke-width: 0.8"/>
     </g>
     <g id="line2d_28">
      <g>
       <use xlink:href="#mb5d766a11d" x="613.326316" y="384.48" style="stroke: #000000; stroke-width: 0.8"/>
      </g>
     </g>
     <g id="text_14">
      <!-- 2017 -->
      <g transform="translate(603.326316 398.355) scale(0.1 -0.1)">
       <use xlink:href="#SimHei-32"/>
       <use xlink:href="#SimHei-30" x="50"/>
       <use xlink:href="#SimHei-31" x="100"/>
       <use xlink:href="#SimHei-37" x="150"/>
      </g>
     </g>
    </g>
    <g id="xtick_15">
     <g id="line2d_29">
      <path d="M 651.505263 384.48 
L 651.505263 51.84 
" clip-path="url(#pf4cf029164)" style="fill: none; stroke-dasharray: 2.96,1.28; stroke-dashoffset: 0; stroke: #b0b0b0; stroke-width: 0.8"/>
     </g>
     <g id="line2d_30">
      <g>
       <use xlink:href="#mb5d766a11d" x="651.505263" y="384.48" style="stroke: #000000; stroke-width: 0.8"/>
      </g>
     </g>
     <g id="text_15">
      <!-- 2018 -->
      <g transform="translate(641.505263 398.355) scale(0.1 -0.1)">
       <use xlink:href="#SimHei-32"/>
       <use xlink:href="#SimHei-30" x="50"/>
       <use xlink:href="#SimHei-31" x="100"/>
       <use xlink:href="#SimHei-38" x="150"/>
      </g>
     </g>
    </g>
    <g id="xtick_16">
     <g id="line2d_31">
      <path d="M 689.684211 384.48 
L 689.684211 51.84 
" clip-path="url(#pf4cf029164)" style="fill: none; stroke-dasharray: 2.96,1.28; stroke-dashoffset: 0; stroke: #b0b0b0; stroke-width: 0.8"/>
     </g>
     <g id="line2d_32">
      <g>
       <use xlink:href="#mb5d766a11d" x="689.684211" y="384.48" style="stroke: #000000; stroke-width: 0.8"/>
      </g>
     </g>
     <g id="text_16">
      <!-- 2019 -->
      <g transform="translate(679.684211 398.355) scale(0.1 -0.1)">
       <use xlink:href="#SimHei-32"/>
       <use xlink:href="#SimHei-30" x="50"/>
       <use xlink:href="#SimHei-31" x="100"/>
       <use xlink:href="#SimHei-39" x="150"/>
      </g>
     </g>
    </g>
    <g id="xtick_17">
     <g id="line2d_33">
      <path d="M 727.863158 384.48 
L 727.863158 51.84 
" clip-path="url(#pf4cf029164)" style="fill: none; stroke-dasharray: 2.96,1.28; stroke-dashoffset: 0; stroke: #b0b0b0; stroke-width: 0.8"/>
     </g>
     <g id="line2d_34">
      <g>
       <use xlink:href="#mb5d766a11d" x="727.863158" y="384.48" style="stroke: #000000; stroke-width: 0.8"/>
      </g>
     </g>
     <g id="text_17">
      <!-- 2020 -->
      <g transform="translate(717.863158 398.355) scale(0.1 -0.1)">
       <use xlink:href="#SimHei-32"/>
       <use xlink:href="#SimHei-30" x="50"/>
       <use xlink:href="#SimHei-32" x="100"/>
       <use xlink:href="#SimHei-30" x="150"/>
      </g>
     </g>
    </g>
    <g id="xtick_18">
     <g id="line2d_35">
      <path d="M 766.042105 384.48 
L 766.042105 51.84 
" clip-path="url(#pf4cf029164)" style="fill: none; stroke-dasharray: 2.96,1.28; stroke-dashoffset: 0; stroke: #b0b0b0; stroke-width: 0.8"/>
     </g>
     <g id="line2d_36">
      <g>
       <use xlink:href="#mb5d766a11d" x="766.042105" y="384.48" style="stroke: #000000; stroke-width: 0.8"/>
      </g>
     </g>
     <g id="text_18">
      <!-- 2021 -->
      <g transform="translate(756.042105 398.355) scale(0.1 -0.1)">
       <use xlink:href="#SimHei-32"/>
       <use xlink:href="#SimHei-30" x="50"/>
       <use xlink:href="#SimHei-32" x="100"/>
       <use xlink:href="#SimHei-31" x="150"/>
      </g>
     </g>
    </g>
    <g id="xtick_19">
     <g id="line2d_37">
      <path d="M 804.221053 384.48 
L 804.221053 51.84 
" clip-path="url(#pf4cf029164)" style="fill: none; stroke-dasharray: 2.96,1.28; stroke-dashoffset: 0; stroke: #b0b0b0; stroke-width: 0.8"/>
     </g>
     <g id="line2d_38">
      <g>
       <use xlink:href="#mb5d766a11d" x="804.221053" y="384.48" style="stroke: #000000; stroke-width: 0.8"/>
      </g>
     </g>
     <g id="text_19">
      <!-- 2022 -->
      <g transform="translate(794.221053 398.355) scale(0.1 -0.1)">
       <use xlink:href="#SimHei-32"/>
       <use xlink:href="#SimHei-30" x="50"/>
       <use xlink:href="#SimHei-32" x="100"/>
       <use xlink:href="#SimHei-32" x="150"/>
      </g>
     </g>
    </g>
    <g id="xtick_20">
     <g id="line2d_39">
      <path d="M 842.4 384.48 
L 842.4 51.84 
" clip-path="url(#pf4cf029164)" style="fill: none; stroke-dasharray: 2.96,1.28; stroke-dashoffset: 0; stroke: #b0b0b0; stroke-width: 0.8"/>
     </g>
     <g id="line2d_40">
      <g>
       <use xlink:href="#mb5d766a11d" x="842.4" y="384.48" style="stroke: #000000; stroke-width: 0.8"/>
      </g>
     </g>
     <g id="text_20">
      <!-- 2023 -->
      <g transform="translate(832.4 398.355) scale(0.1 -0.1)">
       <use xlink:href="#SimHei-32"/>
       <use xlink:href="#SimHei-30" x="50"/>
       <use xlink:href="#SimHei-32" x="100"/>
       <use xlink:href="#SimHei-33" x="150"/>
      </g>
     </g>
    </g>
   </g>
   <g id="matplotlib.axis_2">
    <g id="ytick_1">
     <g id="line2d_41">
      <path d="M 117 324.325132 
L 842.4 324.325132 
" clip-path="url(#pf4cf029164)" style="fill: none; stroke-dasharray: 2.96,1.28; stroke-dashoffset: 0; stroke: #b0b0b0; stroke-width: 0.8"/>
     </g>
     <g id="line2d_42">
      <defs>
       <path id="m7ddd19a71e" d="M 0 0 
L -3.5 0 
" style="stroke: #000000; stroke-width: 0.8"/>
      </defs>
      <g>
       <use xlink:href="#m7ddd19a71e" x="117" y="324.325132" style="stroke: #000000; stroke-width: 0.8"/>
      </g>
     </g>
     <g id="text_21">
      <!-- 40000 -->
      <g transform="translate(85 327.762632) scale(0.1 -0.1)">
       <use xlink:href="#SimHei-34"/>
       <use xlink:href="#SimHei-30" x="50"/>
       <use xlink:href="#SimHei-30" x="100"/>
       <use xlink:href="#SimHei-30" x="150"/>
       <use xlink:href="#SimHei-30" x="200"/>
      </g>
     </g>
    </g>
    <g id="ytick_2">
     <g id="line2d_43">
      <path d="M 117 266.939053 
L 842.4 266.939053 
" clip-path="url(#pf4cf029164)" style="fill: none; stroke-dasharray: 2.96,1.28; stroke-dashoffset: 0; stroke: #b0b0b0; stroke-width: 0.8"/>
     </g>
     <g id="line2d_44">
      <g>
       <use xlink:href="#m7ddd19a71e" x="117" y="266.939053" style="stroke: #000000; stroke-width: 0.8"/>
      </g>
     </g>
     <g id="text_22">
      <!-- 60000 -->
      <g transform="translate(85 270.376553) scale(0.1 -0.1)">
       <use xlink:href="#SimHei-36"/>
       <use xlink:href="#SimHei-30" x="50"/>
       <use xlink:href="#SimHei-30" x="100"/>
       <use xlink:href="#SimHei-30" x="150"/>
       <use xlink:href="#SimHei-30" x="200"/>
      </g>
     </g>
    </g>
    <g id="ytick_3">
     <g id="line2d_45">
      <path d="M 117 218.56035 
L 842.4 218.56035 
" clip-path="url(#pf4cf029164)" style="fill: none; stroke-dasharray: 2.96,1.28; stroke-dashoffset: 0; stroke: #b0b0b0; stroke-width: 0.8"/>
     </g>
     <g id="line2d_46">
      <g>
       <use xlink:href="#m7ddd19a71e" x="117" y="218.56035" style="stroke: #000000; stroke-width: 0.8"/>
      </g>
     </g>
     <g id="text_23">
      <!-- 80000 -->
      <g transform="translate(85 221.99785) scale(0.1 -0.1)">
       <use xlink:href="#SimHei-38"/>
       <use xlink:href="#SimHei-30" x="50"/>
       <use xlink:href="#SimHei-30" x="100"/>
       <use xlink:href="#SimHei-30" x="150"/>
       <use xlink:href="#SimHei-30" x="200"/>
      </g>
     </g>
    </g>
    <g id="ytick_4">
     <g id="line2d_47">
      <path d="M 117 175.937858 
L 842.4 175.937858 
" clip-path="url(#pf4cf029164)" style="fill: none; stroke-dasharray: 2.96,1.28; stroke-dashoffset: 0; stroke: #b0b0b0; stroke-width: 0.8"/>
     </g>
     <g id="line2d_48">
      <g>
       <use xlink:href="#m7ddd19a71e" x="117" y="175.937858" style="stroke: #000000; stroke-width: 0.8"/>
      </g>
     </g>
     <g id="text_24">
      <!-- 100000 -->
      <g transform="translate(80 179.375358) scale(0.1 -0.1)">
       <use xlink:href="#SimHei-31"/>
       <use xlink:href="#SimHei-30" x="50"/>
       <use xlink:href="#SimHei-30" x="100"/>
       <use xlink:href="#SimHei-30" x="150"/>
       <use xlink:href="#SimHei-30" x="200"/>
       <use xlink:href="#SimHei-30" x="250"/>
      </g>
     </g>
    </g>
    <g id="ytick_5">
     <g id="line2d_49">
      <path d="M 117 137.404179 
L 842.4 137.404179 
" clip-path="url(#pf4cf029164)" style="fill: none; stroke-dasharray: 2.96,1.28; stroke-dashoffset: 0; stroke: #b0b0b0; stroke-width: 0.8"/>
     </g>
     <g id="line2d_50">
      <g>
       <use xlink:href="#m7ddd19a71e" x="117" y="137.404179" style="stroke: #000000; stroke-width: 0.8"/>
      </g>
     </g>
     <g id="text_25">
      <!-- 120000 -->
      <g transform="translate(80 140.841679) scale(0.1 -0.1)">
       <use xlink:href="#SimHei-31"/>
       <use xlink:href="#SimHei-32" x="50"/>
       <use xlink:href="#SimHei-30" x="100"/>
       <use xlink:href="#SimHei-30" x="150"/>
       <use xlink:href="#SimHei-30" x="200"/>
       <use xlink:href="#SimHei-30" x="250"/>
      </g>
     </g>
    </g>
    <g id="ytick_6">
     <g id="line2d_51">
      <path d="M 117 101.968804 
L 842.4 101.968804 
" clip-path="url(#pf4cf029164)" style="fill: none; stroke-dasharray: 2.96,1.28; stroke-dashoffset: 0; stroke: #b0b0b0; stroke-width: 0.8"/>
     </g>
     <g id="line2d_52">
      <g>
       <use xlink:href="#m7ddd19a71e" x="117" y="101.968804" style="stroke: #000000; stroke-width: 0.8"/>
      </g>
     </g>
     <g id="text_26">
      <!-- 140000 -->
      <g transform="translate(80 105.406304) scale(0.1 -0.1)">
       <use xlink:href="#SimHei-31"/>
       <use xlink:href="#SimHei-34" x="50"/>
       <use xlink:href="#SimHei-30" x="100"/>
       <use xlink:href="#SimHei-30" x="150"/>
       <use xlink:href="#SimHei-30" x="200"/>
       <use xlink:href="#SimHei-30" x="250"/>
      </g>
     </g>
    </g>
    <g id="ytick_7">
     <g id="line2d_53">
      <path d="M 117 68.986361 
L 842.4 68.986361 
" clip-path="url(#pf4cf029164)" style="fill: none; stroke-dasharray: 2.96,1.28; stroke-dashoffset: 0; stroke: #b0b0b0; stroke-width: 0.8"/>
     </g>
     <g id="line2d_54">
      <g>
       <use xlink:href="#m7ddd19a71e" x="117" y="68.986361" style="stroke: #000000; stroke-width: 0.8"/>
      </g>
     </g>
     <g id="text_27">
      <!-- 160000 -->
      <g transform="translate(80 72.423861) scale(0.1 -0.1)">
       <use xlink:href="#SimHei-31"/>
       <use xlink:href="#SimHei-36" x="50"/>
       <use xlink:href="#SimHei-30" x="100"/>
       <use xlink:href="#SimHei-30" x="150"/>
       <use xlink:href="#SimHei-30" x="200"/>
       <use xlink:href="#SimHei-30" x="250"/>
      </g>
     </g>
    </g>
   </g>
   <g id="line2d_55">
    <path d="M 117 119.366634 
L 155.178947 118.008863 
L 193.357895 116.788867 
L 231.536842 115.591394 
L 269.715789 114.411017 
L 307.894737 113.277311 
L 346.073684 112.158556 
L 384.252632 110.722589 
L 422.431579 108.977508 
L 460.610526 107.587468 
L 498.789474 106.00188 
L 536.968421 104.833327 
L 575.147368 103.280855 
L 613.326316 101.950038 
L 651.505263 101.046719 
L 689.684211 100.252186 
L 727.863158 99.905523 
L 766.042105 99.823991 
L 804.221053 99.968379 
L 842.4 100.321889 
" clip-path="url(#pf4cf029164)" style="fill: none; stroke: #8832ea; stroke-width: 1.5; stroke-linecap: square"/>
    <defs>
     <path id="mce18edfffa" d="M 0 3 
C 0.795609 3 1.55874 2.683901 2.12132 2.12132 
C 2.683901 1.55874 3 0.795609 3 0 
C 3 -0.795609 2.683901 -1.55874 2.12132 -2.12132 
C 1.55874 -2.683901 0.795609 -3 0 -3 
C -0.795609 -3 -1.55874 -2.683901 -2.12132 -2.12132 
C -2.683901 -1.55874 -3 -0.795609 -3 0 
C -3 0.795609 -2.683901 1.55874 -2.12132 2.12132 
C -1.55874 2.683901 -0.795609 3 0 3 
z
" style="stroke: #8832ea"/>
    </defs>
    <g clip-path="url(#pf4cf029164)">
     <use xlink:href="#mce18edfffa" x="117" y="119.366634" style="fill: #8832ea; stroke: #8832ea"/>
     <use xlink:href="#mce18edfffa" x="155.178947" y="118.008863" style="fill: #8832ea; stroke: #8832ea"/>
     <use xlink:href="#mce18edfffa" x="193.357895" y="116.788867" style="fill: #8832ea; stroke: #8832ea"/>
     <use xlink:href="#mce18edfffa" x="231.536842" y="115.591394" style="fill: #8832ea; stroke: #8832ea"/>
     <use xlink:href="#mce18edfffa" x="269.715789" y="114.411017" style="fill: #8832ea; stroke: #8832ea"/>
     <use xlink:href="#mce18edfffa" x="307.894737" y="113.277311" style="fill: #8832ea; stroke: #8832ea"/>
     <use xlink:href="#mce18edfffa" x="346.073684" y="112.158556" style="fill: #8832ea; stroke: #8832ea"/>
     <use xlink:href="#mce18edfffa" x="384.252632" y="110.722589" style="fill: #8832ea; stroke: #8832ea"/>
     <use xlink:href="#mce18edfffa" x="422.431579" y="108.977508" style="fill: #8832ea; stroke: #8832ea"/>
     <use xlink:href="#mce18edfffa" x="460.610526" y="107.587468" style="fill: #8832ea; stroke: #8832ea"/>
     <use xlink:href="#mce18edfffa" x="498.789474" y="106.00188" style="fill: #8832ea; stroke: #8832ea"/>
     <use xlink:href="#mce18edfffa" x="536.968421" y="104.833327" style="fill: #8832ea; stroke: #8832ea"/>
     <use xlink:href="#mce18edfffa" x="575.147368" y="103.280855" style="fill: #8832ea; stroke: #8832ea"/>
     <use xlink:href="#mce18edfffa" x="613.326316" y="101.950038" style="fill: #8832ea; stroke: #8832ea"/>
     <use xlink:href="#mce18edfffa" x="651.505263" y="101.046719" style="fill: #8832ea; stroke: #8832ea"/>
     <use xlink:href="#mce18edfffa" x="689.684211" y="100.252186" style="fill: #8832ea; stroke: #8832ea"/>
     <use xlink:href="#mce18edfffa" x="727.863158" y="99.905523" style="fill: #8832ea; stroke: #8832ea"/>
     <use xlink:href="#mce18edfffa" x="766.042105" y="99.823991" style="fill: #8832ea; stroke: #8832ea"/>
     <use xlink:href="#mce18edfffa" x="804.221053" y="99.968379" style="fill: #8832ea; stroke: #8832ea"/>
     <use xlink:href="#mce18edfffa" x="842.4" y="100.321889" style="fill: #8832ea; stroke: #8832ea"/>
    </g>
   </g>
   <g id="line2d_56">
    <path d="M 117 249.259085 
L 155.178947 248.276377 
L 193.357895 247.409386 
L 231.536842 246.625396 
L 269.715789 245.870103 
L 307.894737 245.162804 
L 346.073684 244.916819 
L 384.252632 243.912837 
L 422.431579 242.703784 
L 460.610526 241.730492 
L 498.789474 240.625356 
L 536.968421 239.821044 
L 575.147368 238.743612 
L 613.326316 237.92465 
L 651.505263 237.414688 
L 689.684211 236.998226 
L 727.863158 236.242748 
L 766.042105 236.351928 
L 804.221053 236.601274 
L 842.4 237.014875 
" clip-path="url(#pf4cf029164)" style="fill: none; stroke: #e0a6a5; stroke-width: 1.5; stroke-linecap: square"/>
    <defs>
     <path id="mafd05d5226" d="M 0 3 
C 0.795609 3 1.55874 2.683901 2.12132 2.12132 
C 2.683901 1.55874 3 0.795609 3 0 
C 3 -0.795609 2.683901 -1.55874 2.12132 -2.12132 
C 1.55874 -2.683901 0.795609 -3 0 -3 
C -0.795609 -3 -1.55874 -2.683901 -2.12132 -2.12132 
C -2.683901 -1.55874 -3 -0.795609 -3 0 
C -3 0.795609 -2.683901 1.55874 -2.12132 2.12132 
C -1.55874 2.683901 -0.795609 3 0 3 
z
" style="stroke: #e0a6a5"/>
    </defs>
    <g clip-path="url(#pf4cf029164)">
     <use xlink:href="#mafd05d5226" x="117" y="249.259085" style="fill: #e0a6a5; stroke: #e0a6a5"/>
     <use xlink:href="#mafd05d5226" x="155.178947" y="248.276377" style="fill: #e0a6a5; stroke: #e0a6a5"/>
     <use xlink:href="#mafd05d5226" x="193.357895" y="247.409386" style="fill: #e0a6a5; stroke: #e0a6a5"/>
     <use xlink:href="#mafd05d5226" x="231.536842" y="246.625396" style="fill: #e0a6a5; stroke: #e0a6a5"/>
     <use xlink:href="#mafd05d5226" x="269.715789" y="245.870103" style="fill: #e0a6a5; stroke: #e0a6a5"/>
     <use xlink:href="#mafd05d5226" x="307.894737" y="245.162804" style="fill: #e0a6a5; stroke: #e0a6a5"/>
     <use xlink:href="#mafd05d5226" x="346.073684" y="244.916819" style="fill: #e0a6a5; stroke: #e0a6a5"/>
     <use xlink:href="#mafd05d5226" x="384.252632" y="243.912837" style="fill: #e0a6a5; stroke: #e0a6a5"/>
     <use xlink:href="#mafd05d5226" x="422.431579" y="242.703784" style="fill: #e0a6a5; stroke: #e0a6a5"/>
     <use xlink:href="#mafd05d5226" x="460.610526" y="241.730492" style="fill: #e0a6a5; stroke: #e0a6a5"/>
     <use xlink:href="#mafd05d5226" x="498.789474" y="240.625356" style="fill: #e0a6a5; stroke: #e0a6a5"/>
     <use xlink:href="#mafd05d5226" x="536.968421" y="239.821044" style="fill: #e0a6a5; stroke: #e0a6a5"/>
     <use xlink:href="#mafd05d5226" x="575.147368" y="238.743612" style="fill: #e0a6a5; stroke: #e0a6a5"/>
     <use xlink:href="#mafd05d5226" x="613.326316" y="237.92465" style="fill: #e0a6a5; stroke: #e0a6a5"/>
     <use xlink:href="#mafd05d5226" x="651.505263" y="237.414688" style="fill: #e0a6a5; stroke: #e0a6a5"/>
     <use xlink:href="#mafd05d5226" x="689.684211" y="236.998226" style="fill: #e0a6a5; stroke: #e0a6a5"/>
     <use xlink:href="#mafd05d5226" x="727.863158" y="236.242748" style="fill: #e0a6a5; stroke: #e0a6a5"/>
     <use xlink:href="#mafd05d5226" x="766.042105" y="236.351928" style="fill: #e0a6a5; stroke: #e0a6a5"/>
     <use xlink:href="#mafd05d5226" x="804.221053" y="236.601274" style="fill: #e0a6a5; stroke: #e0a6a5"/>
     <use xlink:href="#mafd05d5226" x="842.4" y="237.014875" style="fill: #e0a6a5; stroke: #e0a6a5"/>
    </g>
   </g>
   <g id="line2d_57">
    <path d="M 117 259.185771 
L 155.178947 258.248777 
L 193.357895 257.390362 
L 231.536842 256.478745 
L 269.715789 255.562149 
L 307.894737 254.663182 
L 346.073684 253.311885 
L 384.252632 252.284646 
L 422.431579 251.02495 
L 460.610526 250.032032 
L 498.789474 248.894231 
L 536.968421 248.045285 
L 575.147368 246.926524 
L 613.326316 245.860337 
L 651.505263 245.08972 
L 689.684211 244.379206 
L 727.863158 244.656419 
L 766.042105 244.427823 
L 804.221053 244.379206 
L 842.4 244.461859 
" clip-path="url(#pf4cf029164)" style="fill: none; stroke: #11bda1; stroke-width: 1.5; stroke-linecap: square"/>
    <defs>
     <path id="m7dc1a9c129" d="M 0 3 
C 0.795609 3 1.55874 2.683901 2.12132 2.12132 
C 2.683901 1.55874 3 0.795609 3 0 
C 3 -0.795609 2.683901 -1.55874 2.12132 -2.12132 
C 1.55874 -2.683901 0.795609 -3 0 -3 
C -0.795609 -3 -1.55874 -2.683901 -2.12132 -2.12132 
C -2.683901 -1.55874 -3 -0.795609 -3 0 
C -3 0.795609 -2.683901 1.55874 -2.12132 2.12132 
C -1.55874 2.683901 -0.795609 3 0 3 
z
" style="stroke: #11bda1"/>
    </defs>
    <g clip-path="url(#pf4cf029164)">
     <use xlink:href="#m7dc1a9c129" x="117" y="259.185771" style="fill: #11bda1; stroke: #11bda1"/>
     <use xlink:href="#m7dc1a9c129" x="155.178947" y="258.248777" style="fill: #11bda1; stroke: #11bda1"/>
     <use xlink:href="#m7dc1a9c129" x="193.357895" y="257.390362" style="fill: #11bda1; stroke: #11bda1"/>
     <use xlink:href="#m7dc1a9c129" x="231.536842" y="256.478745" style="fill: #11bda1; stroke: #11bda1"/>
     <use xlink:href="#m7dc1a9c129" x="269.715789" y="255.562149" style="fill: #11bda1; stroke: #11bda1"/>
     <use xlink:href="#m7dc1a9c129" x="307.894737" y="254.663182" style="fill: #11bda1; stroke: #11bda1"/>
     <use xlink:href="#m7dc1a9c129" x="346.073684" y="253.311885" style="fill: #11bda1; stroke: #11bda1"/>
     <use xlink:href="#m7dc1a9c129" x="384.252632" y="252.284646" style="fill: #11bda1; stroke: #11bda1"/>
     <use xlink:href="#m7dc1a9c129" x="422.431579" y="251.02495" style="fill: #11bda1; stroke: #11bda1"/>
     <use xlink:href="#m7dc1a9c129" x="460.610526" y="250.032032" style="fill: #11bda1; stroke: #11bda1"/>
     <use xlink:href="#m7dc1a9c129" x="498.789474" y="248.894231" style="fill: #11bda1; stroke: #11bda1"/>
     <use xlink:href="#m7dc1a9c129" x="536.968421" y="248.045285" style="fill: #11bda1; stroke: #11bda1"/>
     <use xlink:href="#m7dc1a9c129" x="575.147368" y="246.926524" style="fill: #11bda1; stroke: #11bda1"/>
     <use xlink:href="#m7dc1a9c129" x="613.326316" y="245.860337" style="fill: #11bda1; stroke: #11bda1"/>
     <use xlink:href="#m7dc1a9c129" x="651.505263" y="245.08972" style="fill: #11bda1; stroke: #11bda1"/>
     <use xlink:href="#m7dc1a9c129" x="689.684211" y="244.379206" style="fill: #11bda1; stroke: #11bda1"/>
     <use xlink:href="#m7dc1a9c129" x="727.863158" y="244.656419" style="fill: #11bda1; stroke: #11bda1"/>
     <use xlink:href="#m7dc1a9c129" x="766.042105" y="244.427823" style="fill: #11bda1; stroke: #11bda1"/>
     <use xlink:href="#m7dc1a9c129" x="804.221053" y="244.379206" style="fill: #11bda1; stroke: #11bda1"/>
     <use xlink:href="#m7dc1a9c129" x="842.4" y="244.461859" style="fill: #11bda1; stroke: #11bda1"/>
    </g>
   </g>
   <g id="line2d_58">
    <path d="M 117 282.210673 
L 155.178947 276.971663 
L 193.357895 271.432882 
L 231.536842 265.293757 
L 269.715789 260.738214 
L 307.894737 255.393717 
L 346.073684 249.254152 
L 384.252632 242.058634 
L 422.431579 236.674925 
L 460.610526 231.18962 
L 498.789474 225.998965 
L 536.968421 220.139116 
L 575.147368 214.243879 
L 613.326316 208.88818 
L 651.505263 204.322424 
L 689.684211 200.019713 
L 727.863158 196.187911 
L 766.042105 193.635507 
L 804.221053 192.274088 
L 842.4 189.766115 
" clip-path="url(#pf4cf029164)" style="fill: none; stroke: #9aa942; stroke-width: 1.5; stroke-linecap: square"/>
    <defs>
     <path id="mf64a5765bf" d="M 0 3 
C 0.795609 3 1.55874 2.683901 2.12132 2.12132 
C 2.683901 1.55874 3 0.795609 3 0 
C 3 -0.795609 2.683901 -1.55874 2.12132 -2.12132 
C 1.55874 -2.683901 0.795609 -3 0 -3 
C -0.795609 -3 -1.55874 -2.683901 -2.12132 -2.12132 
C -2.683901 -1.55874 -3 -0.795609 -3 0 
C -3 0.795609 -2.683901 1.55874 -2.12132 2.12132 
C -1.55874 2.683901 -0.795609 3 0 3 
z
" style="stroke: #9aa942"/>
    </defs>
    <g clip-path="url(#pf4cf029164)">
     <use xlink:href="#mf64a5765bf" x="117" y="282.210673" style="fill: #9aa942; stroke: #9aa942"/>
     <use xlink:href="#mf64a5765bf" x="155.178947" y="276.971663" style="fill: #9aa942; stroke: #9aa942"/>
     <use xlink:href="#mf64a5765bf" x="193.357895" y="271.432882" style="fill: #9aa942; stroke: #9aa942"/>
     <use xlink:href="#mf64a5765bf" x="231.536842" y="265.293757" style="fill: #9aa942; stroke: #9aa942"/>
     <use xlink:href="#mf64a5765bf" x="269.715789" y="260.738214" style="fill: #9aa942; stroke: #9aa942"/>
     <use xlink:href="#mf64a5765bf" x="307.894737" y="255.393717" style="fill: #9aa942; stroke: #9aa942"/>
     <use xlink:href="#mf64a5765bf" x="346.073684" y="249.254152" style="fill: #9aa942; stroke: #9aa942"/>
     <use xlink:href="#mf64a5765bf" x="384.252632" y="242.058634" style="fill: #9aa942; stroke: #9aa942"/>
     <use xlink:href="#mf64a5765bf" x="422.431579" y="236.674925" style="fill: #9aa942; stroke: #9aa942"/>
     <use xlink:href="#mf64a5765bf" x="460.610526" y="231.18962" style="fill: #9aa942; stroke: #9aa942"/>
     <use xlink:href="#mf64a5765bf" x="498.789474" y="225.998965" style="fill: #9aa942; stroke: #9aa942"/>
     <use xlink:href="#mf64a5765bf" x="536.968421" y="220.139116" style="fill: #9aa942; stroke: #9aa942"/>
     <use xlink:href="#mf64a5765bf" x="575.147368" y="214.243879" style="fill: #9aa942; stroke: #9aa942"/>
     <use xlink:href="#mf64a5765bf" x="613.326316" y="208.88818" style="fill: #9aa942; stroke: #9aa942"/>
     <use xlink:href="#mf64a5765bf" x="651.505263" y="204.322424" style="fill: #9aa942; stroke: #9aa942"/>
     <use xlink:href="#mf64a5765bf" x="689.684211" y="200.019713" style="fill: #9aa942; stroke: #9aa942"/>
     <use xlink:href="#mf64a5765bf" x="727.863158" y="196.187911" style="fill: #9aa942; stroke: #9aa942"/>
     <use xlink:href="#mf64a5765bf" x="766.042105" y="193.635507" style="fill: #9aa942; stroke: #9aa942"/>
     <use xlink:href="#mf64a5765bf" x="804.221053" y="192.274088" style="fill: #9aa942; stroke: #9aa942"/>
     <use xlink:href="#mf64a5765bf" x="842.4" y="189.766115" style="fill: #9aa942; stroke: #9aa942"/>
    </g>
   </g>
   <g id="line2d_59">
    <path d="M 117 228.387441 
L 155.178947 231.091408 
L 193.357895 234.342405 
L 231.536842 238.292104 
L 269.715789 240.92115 
L 307.894737 244.454565 
L 346.073684 248.921335 
L 384.252632 254.197102 
L 422.431579 257.32209 
L 460.610526 261.195954 
L 498.789474 264.581653 
L 536.968421 269.492977 
L 575.147368 274.03502 
L 613.326316 278.439899 
L 651.505263 282.690532 
L 689.684211 286.908231 
L 727.863158 291.368451 
L 766.042105 294.657905 
L 804.221053 296.755919 
L 842.4 300.829756 
" clip-path="url(#pf4cf029164)" style="fill: none; stroke: #df0491; stroke-width: 1.5; stroke-linecap: square"/>
    <defs>
     <path id="m35218a7863" d="M 0 3 
C 0.795609 3 1.55874 2.683901 2.12132 2.12132 
C 2.683901 1.55874 3 0.795609 3 0 
C 3 -0.795609 2.683901 -1.55874 2.12132 -2.12132 
C 1.55874 -2.683901 0.795609 -3 0 -3 
C -0.795609 -3 -1.55874 -2.683901 -2.12132 -2.12132 
C -2.683901 -1.55874 -3 -0.795609 -3 0 
C -3 0.795609 -2.683901 1.55874 -2.12132 2.12132 
C -1.55874 2.683901 -0.795609 3 0 3 
z
" style="stroke: #df0491"/>
    </defs>
    <g clip-path="url(#pf4cf029164)">
     <use xlink:href="#m35218a7863" x="117" y="228.387441" style="fill: #df0491; stroke: #df0491"/>
     <use xlink:href="#m35218a7863" x="155.178947" y="231.091408" style="fill: #df0491; stroke: #df0491"/>
     <use xlink:href="#m35218a7863" x="193.357895" y="234.342405" style="fill: #df0491; stroke: #df0491"/>
     <use xlink:href="#m35218a7863" x="231.536842" y="238.292104" style="fill: #df0491; stroke: #df0491"/>
     <use xlink:href="#m35218a7863" x="269.715789" y="240.92115" style="fill: #df0491; stroke: #df0491"/>
     <use xlink:href="#m35218a7863" x="307.894737" y="244.454565" style="fill: #df0491; stroke: #df0491"/>
     <use xlink:href="#m35218a7863" x="346.073684" y="248.921335" style="fill: #df0491; stroke: #df0491"/>
     <use xlink:href="#m35218a7863" x="384.252632" y="254.197102" style="fill: #df0491; stroke: #df0491"/>
     <use xlink:href="#m35218a7863" x="422.431579" y="257.32209" style="fill: #df0491; stroke: #df0491"/>
     <use xlink:href="#m35218a7863" x="460.610526" y="261.195954" style="fill: #df0491; stroke: #df0491"/>
     <use xlink:href="#m35218a7863" x="498.789474" y="264.581653" style="fill: #df0491; stroke: #df0491"/>
     <use xlink:href="#m35218a7863" x="536.968421" y="269.492977" style="fill: #df0491; stroke: #df0491"/>
     <use xlink:href="#m35218a7863" x="575.147368" y="274.03502" style="fill: #df0491; stroke: #df0491"/>
     <use xlink:href="#m35218a7863" x="613.326316" y="278.439899" style="fill: #df0491; stroke: #df0491"/>
     <use xlink:href="#m35218a7863" x="651.505263" y="282.690532" style="fill: #df0491; stroke: #df0491"/>
     <use xlink:href="#m35218a7863" x="689.684211" y="286.908231" style="fill: #df0491; stroke: #df0491"/>
     <use xlink:href="#m35218a7863" x="727.863158" y="291.368451" style="fill: #df0491; stroke: #df0491"/>
     <use xlink:href="#m35218a7863" x="766.042105" y="294.657905" style="fill: #df0491; stroke: #df0491"/>
     <use xlink:href="#m35218a7863" x="804.221053" y="296.755919" style="fill: #df0491; stroke: #df0491"/>
     <use xlink:href="#m35218a7863" x="842.4" y="300.829756" style="fill: #df0491; stroke: #df0491"/>
    </g>
   </g>
   <g id="patch_3">
    <path d="M 117 384.48 
L 117 51.84 
" style="fill: none; stroke: #000000; stroke-width: 0.8; stroke-linejoin: miter; stroke-linecap: square"/>
   </g>
   <g id="patch_4">
    <path d="M 117 384.48 
L 842.4 384.48 
" style="fill: none; stroke: #000000; stroke-width: 0.8; stroke-linejoin: miter; stroke-linecap: square"/>
   </g>
   <g id="legend_1">
    <g id="patch_5">
     <path d="M 124 379.48 
L 236 379.48 
Q 238 379.48 238 377.48 
L 238 307.503438 
Q 238 305.503438 236 305.503438 
L 124 305.503438 
Q 122 305.503438 122 307.503438 
L 122 377.48 
Q 122 379.48 124 379.48 
z
" style="fill: #ffffff; opacity: 0.8; stroke: #cccccc; stroke-linejoin: miter"/>
    </g>
    <g id="line2d_60">
     <path d="M 126 313.972188 
L 136 313.972188 
L 146 313.972188 
" style="fill: none; stroke: #8832ea; stroke-width: 1.5; stroke-linecap: square"/>
     <g>
      <use xlink:href="#mce18edfffa" x="136" y="313.972188" style="fill: #8832ea; stroke: #8832ea"/>
     </g>
    </g>
    <g id="text_28">
     <!-- 年末总人口(万人) -->
     <g transform="translate(154 317.472188) scale(0.1 -0.1)">
      <defs>
       <path id="SimHei-5e74" d="M 350 2925 
Q 900 3450 1375 4200 
Q 1850 4950 1900 5275 
Q 2275 5125 2600 5050 
Q 2375 4825 2100 4325 
L 4625 4325 
Q 5175 4325 5750 4350 
L 5750 3925 
Q 5225 3950 4625 3950 
L 3800 3950 
L 3800 2925 
Q 4750 2925 5475 2950 
L 5475 2525 
Q 4725 2550 3800 2550 
L 3800 1375 
L 5075 1375 
Q 5625 1375 6100 1400 
L 6100 975 
Q 5650 1000 5075 1000 
L 3800 1000 
L 3800 425 
Q 3800 -150 3825 -625 
L 3275 -625 
Q 3300 -150 3300 375 
L 3300 1000 
L 1600 1000 
Q 900 1000 275 975 
L 275 1400 
Q 875 1375 1450 1375 
Q 1450 2350 1425 2925 
L 3300 2925 
L 3300 3950 
L 1875 3950 
Q 1350 3150 925 2650 
Q 650 2875 350 2925 
z
M 3300 1375 
L 3300 2550 
L 1925 2550 
L 1925 1375 
L 3300 1375 
z
" transform="scale(0.015625)"/>
       <path id="SimHei-672b" d="M 5675 -125 
Q 5150 125 4775 450 
Q 4400 775 4112 1087 
Q 3825 1400 3500 2075 
L 3500 350 
Q 3500 -300 3550 -600 
L 2975 -600 
Q 3025 -325 3025 350 
L 3025 2075 
Q 2800 1700 2562 1387 
Q 2325 1075 2025 787 
Q 1725 500 1412 250 
Q 1100 0 700 -225 
Q 650 -50 300 250 
Q 750 450 1087 687 
Q 1425 925 1712 1175 
Q 2000 1425 2200 1700 
Q 2400 1975 2550 2250 
L 1725 2250 
Q 1225 2250 950 2225 
L 950 2700 
Q 1225 2675 1725 2675 
L 3025 2675 
L 3025 3675 
L 1500 3675 
Q 1025 3675 600 3650 
L 600 4125 
Q 1000 4100 1475 4100 
L 3025 4100 
L 3025 4500 
Q 3025 4900 2975 5200 
L 3575 5200 
Q 3475 5000 3500 4525 
L 3500 4100 
L 5075 4100 
Q 5450 4100 5825 4125 
L 5825 3650 
Q 5450 3675 5125 3675 
L 3500 3675 
L 3500 2675 
L 4675 2675 
Q 5125 2675 5450 2700 
L 5450 2200 
Q 5075 2250 4650 2250 
L 3875 2250 
Q 4050 1875 4350 1537 
Q 4650 1200 4937 1000 
Q 5225 800 5525 650 
Q 5825 500 6150 375 
Q 5875 250 5675 -125 
z
" transform="scale(0.015625)"/>
       <path id="SimHei-603b" d="M 4550 4850 
Q 4375 4650 4025 3900 
L 5100 3900 
Q 5075 3425 5075 2950 
Q 5075 2500 5100 2025 
L 1175 2025 
Q 1200 2550 1200 3000 
Q 1200 3475 1175 3900 
L 2175 3900 
Q 1900 4350 1525 4750 
Q 1700 4850 1875 5050 
Q 2350 4550 2575 4200 
Q 2400 4075 2250 3900 
L 3550 3900 
Q 3875 4700 3950 5100 
Q 4300 4925 4550 4850 
z
M 4600 2450 
L 4600 3525 
L 1650 3525 
L 1650 2450 
L 4600 2450 
z
M 2275 1450 
Q 2250 1050 2250 675 
Q 2250 300 2262 112 
Q 2275 -75 2675 -75 
L 4000 -75 
Q 4325 -75 4400 550 
Q 4650 400 4925 325 
Q 4775 -200 4562 -337 
Q 4350 -475 4000 -450 
L 2325 -450 
Q 1850 -450 1825 -175 
Q 1800 100 1800 525 
Q 1800 975 1775 1450 
L 2275 1450 
z
M 1350 1325 
Q 1050 300 825 -250 
Q 625 -150 375 -50 
Q 675 525 900 1500 
Q 1100 1425 1350 1325 
z
M 4950 1575 
Q 5700 825 6000 450 
Q 5825 275 5625 100 
Q 5375 450 4600 1275 
Q 4750 1375 4950 1575 
z
M 3350 575 
Q 2975 1175 2675 1500 
Q 2825 1650 3000 1800 
Q 3225 1575 3750 875 
Q 3525 775 3350 575 
z
" transform="scale(0.015625)"/>
       <path id="SimHei-4eba" d="M 350 -150 
Q 1325 325 1875 1025 
Q 2425 1725 2637 2462 
Q 2850 3200 2875 3837 
Q 2900 4475 2850 5175 
Q 3125 5150 3475 5125 
Q 3400 4725 3400 4300 
Q 3400 3875 3450 3325 
Q 3500 2775 4162 1662 
Q 4825 550 6100 0 
Q 5800 -300 5700 -500 
Q 3950 350 3200 2575 
Q 2700 600 775 -575 
Q 625 -375 350 -150 
z
" transform="scale(0.015625)"/>
       <path id="SimHei-53e3" d="M 5425 4300 
Q 5400 3775 5400 3175 
L 5400 550 
Q 5400 100 5425 -425 
L 4900 -425 
L 4900 100 
L 1525 100 
L 1525 -425 
L 1000 -425 
Q 1025 0 1025 550 
L 1025 3175 
Q 1025 3775 1000 4300 
L 5425 4300 
z
M 4900 525 
L 4900 3875 
L 1525 3875 
L 1525 525 
L 4900 525 
z
" transform="scale(0.015625)"/>
       <path id="SimHei-28" d="M 2975 -200 
L 2700 -475 
Q 2075 125 1762 775 
Q 1450 1425 1450 2250 
Q 1450 3075 1762 3725 
Q 2075 4375 2700 5000 
L 2975 4725 
Q 2400 4175 2112 3587 
Q 1825 3000 1825 2250 
Q 1825 1500 2112 912 
Q 2400 325 2975 -200 
z
" transform="scale(0.015625)"/>
       <path id="SimHei-4e07" d="M 3650 -550 
Q 3550 -175 3400 25 
Q 3925 0 4137 50 
Q 4350 100 4400 225 
Q 4450 350 4487 812 
Q 4525 1275 4600 2625 
L 2675 2625 
Q 2350 550 900 -600 
Q 675 -325 400 -250 
Q 1125 200 1700 1237 
Q 2275 2275 2275 4250 
L 1525 4250 
Q 975 4250 550 4225 
L 550 4700 
Q 950 4675 1550 4675 
L 4950 4675 
Q 5500 4675 5950 4700 
L 5950 4225 
Q 5500 4250 4950 4250 
L 2800 4250 
Q 2775 3625 2725 3075 
L 5150 3075 
Q 5000 775 4950 287 
Q 4900 -200 4550 -350 
Q 4200 -500 3650 -550 
z
" transform="scale(0.015625)"/>
       <path id="SimHei-29" d="M 1675 2250 
Q 1675 1425 1362 775 
Q 1050 125 425 -475 
L 150 -200 
Q 725 325 1012 912 
Q 1300 1500 1300 2250 
Q 1300 3000 1012 3587 
Q 725 4175 150 4725 
L 425 5000 
Q 1050 4375 1362 3725 
Q 1675 3075 1675 2250 
z
" transform="scale(0.015625)"/>
      </defs>
      <use xlink:href="#SimHei-5e74"/>
      <use xlink:href="#SimHei-672b" x="100"/>
      <use xlink:href="#SimHei-603b" x="200"/>
      <use xlink:href="#SimHei-4eba" x="300"/>
      <use xlink:href="#SimHei-53e3" x="400"/>
      <use xlink:href="#SimHei-28" x="500"/>
      <use xlink:href="#SimHei-4e07" x="550"/>
      <use xlink:href="#SimHei-4eba" x="650"/>
      <use xlink:href="#SimHei-29" x="750"/>
     </g>
    </g>
    <g id="line2d_61">
     <path d="M 126 328.151875 
L 136 328.151875 
L 146 328.151875 
" style="fill: none; stroke: #e0a6a5; stroke-width: 1.5; stroke-linecap: square"/>
     <g>
      <use xlink:href="#mafd05d5226" x="136" y="328.151875" style="fill: #e0a6a5; stroke: #e0a6a5"/>
     </g>
    </g>
    <g id="text_29">
     <!-- 男性人口(万人) -->
     <g transform="translate(154 331.651875) scale(0.1 -0.1)">
      <defs>
       <path id="SimHei-7537" d="M 5525 4950 
Q 5500 4550 5500 4075 
L 5500 3100 
Q 5500 2725 5525 2375 
L 900 2375 
Q 925 2725 925 3100 
L 925 4075 
Q 925 4550 900 4950 
L 5525 4950 
z
M 3325 2225 
Q 3250 1975 3225 1725 
L 5775 1725 
Q 5700 1250 5650 700 
Q 5600 150 5512 -150 
Q 5425 -450 5087 -550 
Q 4750 -650 4425 -700 
Q 4375 -475 4100 -175 
Q 4750 -150 4887 -75 
Q 5025 0 5075 312 
Q 5125 625 5175 1300 
L 3150 1300 
Q 3100 925 2962 612 
Q 2825 300 2575 75 
Q 2325 -150 1912 -312 
Q 1500 -475 750 -700 
Q 675 -450 350 -225 
Q 1150 -100 1575 62 
Q 2000 225 2262 487 
Q 2525 750 2625 1300 
L 1400 1300 
Q 875 1300 600 1275 
L 600 1750 
Q 875 1725 1400 1725 
L 2675 1725 
Q 2700 2000 2675 2275 
Q 2925 2250 3325 2225 
z
M 2950 2725 
L 2950 3475 
L 1450 3475 
L 1450 2725 
L 2950 2725 
z
M 4975 2725 
L 4975 3475 
L 3500 3475 
L 3500 2725 
L 4975 2725 
z
M 2950 3875 
L 2950 4550 
L 1450 4550 
L 1450 3875 
L 2950 3875 
z
M 4975 3875 
L 4975 4550 
L 3500 4550 
L 3500 3875 
L 4975 3875 
z
" transform="scale(0.015625)"/>
       <path id="SimHei-6027" d="M 3450 4525 
Q 3325 4075 3275 3750 
L 4050 3750 
L 4050 4275 
Q 4050 4700 4025 5100 
L 4550 5100 
Q 4525 4700 4525 4275 
L 4525 3750 
L 5025 3750 
Q 5350 3750 5800 3775 
L 5800 3300 
Q 5350 3325 5025 3325 
L 4525 3325 
L 4525 2000 
L 4975 2000 
Q 5350 2000 5725 2025 
L 5725 1550 
Q 5350 1575 4975 1575 
L 4525 1575 
L 4525 25 
L 5200 25 
Q 5625 25 6025 50 
L 6025 -400 
Q 5625 -375 5200 -375 
L 3275 -375 
Q 2825 -375 2400 -400 
L 2400 50 
Q 2825 25 3250 25 
L 4050 25 
L 4050 1575 
L 3625 1575 
Q 3300 1575 2875 1550 
L 2875 2025 
Q 3200 2000 3625 2000 
L 4050 2000 
L 4050 3325 
L 3175 3325 
Q 3100 2950 2775 2225 
Q 2500 2375 2325 2400 
Q 2675 3125 2775 3650 
Q 2875 4175 2950 4650 
Q 3200 4575 3450 4525 
z
M 1700 5150 
Q 1675 4650 1675 4175 
L 1675 425 
Q 1675 -100 1700 -625 
L 1175 -625 
Q 1200 -100 1200 425 
L 1200 4175 
Q 1200 4700 1175 5150 
L 1700 5150 
z
M 975 3725 
Q 825 2675 700 2150 
Q 450 2200 250 2250 
Q 425 2900 525 3800 
Q 725 3775 975 3725 
z
M 2125 4025 
Q 2325 3625 2525 3000 
Q 2300 2925 2125 2825 
Q 1950 3375 1750 3850 
Q 1950 3950 2125 4025 
z
" transform="scale(0.015625)"/>
      </defs>
      <use xlink:href="#SimHei-7537"/>
      <use xlink:href="#SimHei-6027" x="100"/>
      <use xlink:href="#SimHei-4eba" x="200"/>
      <use xlink:href="#SimHei-53e3" x="300"/>
      <use xlink:href="#SimHei-28" x="400"/>
      <use xlink:href="#SimHei-4e07" x="450"/>
      <use xlink:href="#SimHei-4eba" x="550"/>
      <use xlink:href="#SimHei-29" x="650"/>
     </g>
    </g>
    <g id="line2d_62">
     <path d="M 126 342.253438 
L 136 342.253438 
L 146 342.253438 
" style="fill: none; stroke: #11bda1; stroke-width: 1.5; stroke-linecap: square"/>
     <g>
      <use xlink:href="#m7dc1a9c129" x="136" y="342.253438" style="fill: #11bda1; stroke: #11bda1"/>
     </g>
    </g>
    <g id="text_30">
     <!-- 女性人口(万人) -->
     <g transform="translate(154 345.753438) scale(0.1 -0.1)">
      <defs>
       <path id="SimHei-5973" d="M 5550 -550 
Q 4950 -75 3675 525 
Q 3350 150 2600 -187 
Q 1850 -525 975 -650 
Q 875 -400 625 -200 
Q 975 -200 1925 50 
Q 2800 325 3200 725 
Q 2600 1050 1325 1525 
Q 1750 2325 1975 3050 
L 1175 3050 
Q 950 3050 475 3025 
L 475 3500 
Q 950 3475 2100 3475 
Q 2275 3925 2400 4387 
Q 2525 4850 2575 5175 
Q 2925 5050 3250 4950 
Q 3150 4875 3050 4637 
Q 2950 4400 2625 3475 
L 5150 3475 
Q 5700 3475 5950 3500 
L 5950 3025 
Q 5700 3050 5175 3050 
L 4850 3050 
Q 4525 1775 3975 925 
Q 5175 350 5875 -50 
Q 5675 -275 5550 -550 
z
M 1975 1775 
Q 3000 1350 3550 1125 
Q 4100 2050 4275 3050 
L 2525 3050 
Q 2275 2425 1975 1775 
z
" transform="scale(0.015625)"/>
      </defs>
      <use xlink:href="#SimHei-5973"/>
      <use xlink:href="#SimHei-6027" x="100"/>
      <use xlink:href="#SimHei-4eba" x="200"/>
      <use xlink:href="#SimHei-53e3" x="300"/>
      <use xlink:href="#SimHei-28" x="400"/>
      <use xlink:href="#SimHei-4e07" x="450"/>
      <use xlink:href="#SimHei-4eba" x="550"/>
      <use xlink:href="#SimHei-29" x="650"/>
     </g>
    </g>
    <g id="line2d_63">
     <path d="M 126 356.433125 
L 136 356.433125 
L 146 356.433125 
" style="fill: none; stroke: #9aa942; stroke-width: 1.5; stroke-linecap: square"/>
     <g>
      <use xlink:href="#mf64a5765bf" x="136" y="356.433125" style="fill: #9aa942; stroke: #9aa942"/>
     </g>
    </g>
    <g id="text_31">
     <!-- 城镇人口(万人) -->
     <g transform="translate(154 359.933125) scale(0.1 -0.1)">
      <defs>
       <path id="SimHei-57ce" d="M 5225 3125 
Q 5450 3025 5775 2925 
Q 5650 2575 5562 2175 
Q 5475 1775 5337 1350 
Q 5200 925 5075 700 
Q 5325 250 5500 150 
Q 5675 50 5750 700 
Q 5975 475 6200 375 
Q 6100 -50 5937 -350 
Q 5775 -650 5537 -525 
Q 5300 -400 5100 -162 
Q 4900 75 4750 325 
Q 4550 75 4287 -175 
Q 4025 -425 3700 -625 
Q 3525 -375 3300 -225 
Q 3700 -25 3987 212 
Q 4275 450 4500 775 
Q 4275 1375 4175 2212 
Q 4075 3050 4050 3675 
L 2750 3675 
L 2750 2775 
L 3825 2775 
Q 3800 2425 3800 1975 
L 3775 950 
Q 3775 500 3537 362 
Q 3300 225 2925 150 
Q 2875 475 2750 725 
Q 3175 725 3262 800 
Q 3350 875 3350 1075 
L 3375 2350 
L 2750 2350 
Q 2750 1975 2712 1512 
Q 2675 1050 2462 537 
Q 2250 25 1775 -525 
Q 1600 -375 1300 -250 
Q 1800 250 2012 725 
Q 2225 1200 2262 1637 
Q 2300 2075 2300 2800 
Q 2300 3550 2275 4100 
L 4025 4100 
Q 4025 4575 3975 5225 
Q 4250 5175 4525 5175 
Q 4450 4750 4475 4100 
L 4850 4100 
Q 5400 4100 5925 4125 
L 5925 3650 
Q 5400 3675 4850 3675 
L 4500 3675 
Q 4525 3125 4587 2500 
Q 4650 1875 4825 1225 
Q 4975 1600 5075 2100 
Q 5175 2600 5225 3125 
z
M 1975 925 
Q 1575 800 1162 662 
Q 750 525 425 325 
Q 325 650 225 900 
Q 475 900 950 1050 
L 950 3075 
Q 600 3075 300 3050 
L 300 3500 
Q 600 3475 950 3475 
L 950 4375 
Q 950 4650 925 5025 
L 1425 5025 
Q 1400 4700 1400 4375 
L 1400 3475 
Q 1700 3475 2000 3500 
L 2000 3050 
Q 1700 3075 1400 3075 
L 1400 1200 
Q 1675 1250 2000 1375 
Q 1975 1125 1975 925 
z
M 5225 5200 
Q 5600 4750 5775 4450 
Q 5500 4325 5350 4175 
Q 5125 4575 4825 4950 
Q 5025 5050 5225 5200 
z
" transform="scale(0.015625)"/>
       <path id="SimHei-9547" d="M 3900 4625 
Q 3875 4875 3850 5150 
L 4425 5150 
Q 4400 4875 4400 4625 
L 5000 4625 
Q 5400 4625 5875 4650 
L 5875 4250 
Q 5400 4275 5000 4275 
L 4400 4275 
L 4400 3800 
L 5525 3800 
Q 5500 3500 5500 3050 
L 5500 975 
Q 5750 975 6125 1000 
L 6125 600 
Q 5775 625 5350 625 
L 3150 625 
Q 2775 625 2500 600 
L 2500 1000 
Q 2775 975 2975 975 
L 2975 3025 
Q 2975 3500 2950 3800 
L 3900 3800 
L 3900 4275 
L 3400 4275 
Q 2900 4275 2525 4250 
L 2525 4650 
Q 2900 4625 3400 4625 
L 3900 4625 
z
M 2225 2725 
Q 1850 2750 1600 2750 
L 1600 2025 
Q 1925 2025 2450 2050 
L 2450 1650 
Q 1925 1675 1600 1675 
L 1600 475 
Q 1950 750 2125 975 
Q 2200 775 2350 550 
Q 2100 350 1812 125 
Q 1525 -100 1300 -350 
L 950 50 
Q 1100 175 1150 425 
L 1150 1675 
Q 825 1675 425 1650 
L 425 2050 
Q 825 2025 1150 2025 
L 1150 2750 
L 800 2750 
L 800 3100 
L 550 2750 
L 200 3150 
Q 575 3525 850 4087 
Q 1125 4650 1200 5125 
Q 1600 4975 1750 4925 
Q 1600 4800 1350 4125 
Q 1775 4125 2300 4150 
L 2300 3725 
Q 1725 3750 1200 3750 
Q 1025 3400 850 3125 
Q 1175 3100 1500 3100 
Q 1850 3100 2225 3125 
L 2225 2725 
z
M 5050 975 
L 5050 1400 
L 3400 1400 
L 3400 975 
L 5050 975 
z
M 3800 200 
Q 3525 50 3150 -212 
Q 2775 -475 2500 -625 
Q 2250 -400 2125 -300 
Q 2525 -125 2825 87 
Q 3125 300 3400 525 
Q 3600 375 3800 200 
z
M 4825 525 
Q 5050 375 5375 212 
Q 5700 50 6075 -175 
Q 5875 -350 5725 -600 
Q 5450 -375 5162 -187 
Q 4875 0 4525 200 
Q 4650 375 4825 525 
z
M 5050 1750 
L 5050 2100 
L 3400 2100 
L 3400 1750 
L 5050 1750 
z
M 5050 3100 
L 5050 3450 
L 3400 3450 
L 3400 3100 
L 5050 3100 
z
M 5050 2425 
L 5050 2750 
L 3400 2750 
L 3400 2425 
L 5050 2425 
z
" transform="scale(0.015625)"/>
      </defs>
      <use xlink:href="#SimHei-57ce"/>
      <use xlink:href="#SimHei-9547" x="100"/>
      <use xlink:href="#SimHei-4eba" x="200"/>
      <use xlink:href="#SimHei-53e3" x="300"/>
      <use xlink:href="#SimHei-28" x="400"/>
      <use xlink:href="#SimHei-4e07" x="450"/>
      <use xlink:href="#SimHei-4eba" x="550"/>
      <use xlink:href="#SimHei-29" x="650"/>
     </g>
    </g>
    <g id="line2d_64">
     <path d="M 126 370.73 
L 136 370.73 
L 146 370.73 
" style="fill: none; stroke: #df0491; stroke-width: 1.5; stroke-linecap: square"/>
     <g>
      <use xlink:href="#m35218a7863" x="136" y="370.73" style="fill: #df0491; stroke: #df0491"/>
     </g>
    </g>
    <g id="text_32">
     <!-- 乡村人口(万人) -->
     <g transform="translate(154 374.23) scale(0.1 -0.1)">
      <defs>
       <path id="SimHei-4e61" d="M 3325 4950 
Q 3075 4700 2600 4162 
Q 2125 3625 1800 3275 
Q 2150 3275 3525 3375 
Q 4200 3950 4525 4450 
Q 4900 4175 5075 4075 
Q 4850 3925 3800 2975 
Q 2750 2025 2200 1650 
Q 3900 1800 4625 1875 
Q 4925 2325 5050 2700 
Q 5325 2475 5550 2375 
Q 5450 2275 5125 1750 
Q 4800 1225 4275 762 
Q 3750 300 2900 -50 
Q 2050 -400 725 -675 
Q 625 -325 450 -125 
Q 1475 -75 2562 312 
Q 3650 700 4325 1450 
Q 2700 1250 2175 1175 
Q 1650 1100 1475 1025 
Q 1300 1450 1225 1550 
Q 1600 1600 3150 2975 
Q 1425 2850 1350 2750 
Q 1275 3050 1125 3275 
Q 1550 3525 2050 4187 
Q 2550 4850 2750 5275 
Q 3050 5025 3325 4950 
z
" transform="scale(0.015625)"/>
       <path id="SimHei-6751" d="M 1500 4400 
Q 1500 4775 1475 5125 
L 2025 5125 
Q 1975 4825 1975 4400 
L 1975 3800 
Q 2250 3800 2700 3825 
L 2700 3350 
Q 2250 3375 1975 3375 
L 1975 2550 
Q 2175 2650 2375 2800 
Q 2575 2500 2975 1825 
Q 2725 1700 2475 1525 
Q 2350 1850 1975 2400 
L 1975 475 
Q 1975 -25 2025 -500 
L 1475 -500 
Q 1500 0 1500 475 
L 1500 2300 
Q 1350 1950 1187 1625 
Q 1025 1300 625 725 
L 200 1175 
Q 750 1775 1037 2375 
Q 1325 2975 1425 3375 
Q 950 3375 450 3350 
L 450 3825 
Q 975 3800 1500 3800 
L 1500 4400 
z
M 4800 3750 
L 4800 4425 
Q 4800 4800 4750 5100 
L 5325 5100 
Q 5275 4850 5275 4375 
L 5275 3750 
Q 5500 3750 6075 3775 
L 6075 3275 
Q 5525 3325 5275 3325 
L 5275 300 
Q 5275 -225 4975 -325 
Q 4675 -425 4250 -500 
Q 4150 -150 4025 75 
Q 4575 75 4687 150 
Q 4800 225 4800 550 
L 4800 3325 
L 3525 3325 
Q 3225 3325 2975 3275 
L 2975 3775 
Q 3250 3750 3525 3750 
L 4800 3750 
z
M 3700 2625 
Q 3875 2350 4000 2087 
Q 4125 1825 4225 1575 
Q 3975 1475 3700 1325 
Q 3625 1600 3500 1900 
Q 3375 2200 3250 2400 
Q 3450 2525 3700 2625 
z
" transform="scale(0.015625)"/>
      </defs>
      <use xlink:href="#SimHei-4e61"/>
      <use xlink:href="#SimHei-6751" x="100"/>
      <use xlink:href="#SimHei-4eba" x="200"/>
      <use xlink:href="#SimHei-53e3" x="300"/>
      <use xlink:href="#SimHei-28" x="400"/>
      <use xlink:href="#SimHei-4e07" x="450"/>
      <use xlink:href="#SimHei-4eba" x="550"/>
      <use xlink:href="#SimHei-29" x="650"/>
     </g>
    </g>
   </g>
  </g>
 </g>
 <defs>
  <clipPath id="pf4cf029164">
   <rect x="117" y="51.84" width="725.4" height="332.64"/>
  </clipPath>
 </defs>
</svg>
